HIERARCHY
ROOT Pelvis
{
	OFFSET -0.217368 -24.078917 2.858379
	CHANNELS 6 Xposition Yposition Zposition Zrotation Yrotation Xrotation 
	JOINT Left_hip
	{
		OFFSET 5.858135 -8.228005 -1.766408
		CHANNELS 3 Zrotation Yrotation Xrotation
		JOINT Left_knee
		{
			OFFSET 4.345143 -38.646942 0.803700
			CHANNELS 3 Zrotation Yrotation Xrotation
			JOINT Left_ankle
			{
				OFFSET -1.479033 -42.687447 -3.742800
				CHANNELS 3 Zrotation Yrotation Xrotation
				JOINT Left_foot
				{
					OFFSET 4.105436 -6.028605 12.204244
					CHANNELS 3 Zrotation Yrotation Xrotation
					End Site
					{
						OFFSET 0.000000 0.000000 0.000000
					}
				}
			}
		}
	}
	JOINT Right_hip
	{
		OFFSET -6.030973 -9.051328 -1.354253
		CHANNELS 3 Zrotation Yrotation Xrotation
		JOINT Right_knee
		{
			OFFSET -4.325663 -38.368790 -0.484304
			CHANNELS 3 Zrotation Yrotation Xrotation
			JOINT Right_ankle
			{
				OFFSET 1.905555 -42.004566 -3.456167
				CHANNELS 3 Zrotation Yrotation Xrotation
				JOINT Right_foot
				{
					OFFSET -3.483987 -6.210554 13.032330
					CHANNELS 3 Zrotation Yrotation Xrotation
					End Site
					{
						OFFSET 0.000000 0.000000 0.000000
					}
				}
			}
		}
	}
	JOINT Spine1
	{
		OFFSET 0.443945 12.440353 -3.838522
		CHANNELS 3 Zrotation Yrotation Xrotation
		JOINT Spine2
		{
			OFFSET 0.448844 13.795640 2.682033
			CHANNELS 3 Zrotation Yrotation Xrotation
			JOINT Spine3
			{
				OFFSET -0.226460 5.603239 0.285504
				CHANNELS 3 Zrotation Yrotation Xrotation
				JOINT Neck
				{
					OFFSET -1.339018 21.163553 -3.346758
					CHANNELS 3 Zrotation Yrotation Xrotation
					JOINT Head
					{
						OFFSET 1.011321 8.893734 5.040987
						CHANNELS 3 Zrotation Yrotation Xrotation
						End Site
						{
							OFFSET 0.000000 0.000000 0.000000
						}
					}
				}
				JOINT Left_collar
				{
					OFFSET 7.170247 11.399971 -1.889817
					CHANNELS 3 Zrotation Yrotation Xrotation
					JOINT Left_shoulder
					{
						OFFSET 12.292140 4.520507 -1.904600
						CHANNELS 3 Zrotation Yrotation Xrotation
						JOINT Left_elbow
						{
							OFFSET 25.533188 -1.564902 -2.294648
							CHANNELS 3 Zrotation Yrotation Xrotation
							JOINT Left_wrist
							{
								OFFSET 26.570929 1.269810 -0.737473
								CHANNELS 3 Zrotation Yrotation Xrotation
								JOINT Left_palm
								{
									OFFSET 8.669054 -1.063602 -1.559429
									CHANNELS 3 Zrotation Yrotation Xrotation
									End Site
									{
										OFFSET 0.000000 0.000000 0.000000
									}
								}
							}
						}
					}
				}
				JOINT Right_collar
				{
					OFFSET -8.295364 11.247234 -2.370738
					CHANNELS 3 Zrotation Yrotation Xrotation
					JOINT Right_shoulder
					{
						OFFSET -11.322830 4.685326 -0.847207
						CHANNELS 3 Zrotation Yrotation Xrotation
						JOINT Right_elbow
						{
							OFFSET -26.012751 -1.436928 -3.126872
							CHANNELS 3 Zrotation Yrotation Xrotation
							JOINT Right_wrist
							{
								OFFSET -26.910841 0.679372 -0.602677
								CHANNELS 3 Zrotation Yrotation Xrotation
								JOINT Right_palm
								{
									OFFSET -8.875370 -0.865157 -1.010708
									CHANNELS 3 Zrotation Yrotation Xrotation
									End Site
									{
										OFFSET 0.000000 0.000000 0.000000
									}
								}
							}
						}
					}
				}
			}
		}
	}
}
MOTION
Frames: 16
Frame Time: 0.016667
-0.217368 72.298935 2.858379 -0.913782 -0.621142 -1.542220 3.991207 0.261385 5.474617 -0.488753 0.136225 -2.772900 1.066831 6.684769 13.045456 0.000000 0.000000 0.000000 -1.623269 -0.417292 5.293073 0.304653 -0.111885 -2.155804 0.042152 -5.497352 13.769186 0.000000 0.000000 0.000000 3.487818 0.035723 -0.900718 -0.658752 0.734164 -21.158261 -1.689120 3.677402 25.767832 2.435799 -1.084134 -7.717560 0.000000 0.000000 0.000000 3.643254 -6.289843 2.254240 -6.091890 -28.438057 -0.545753 95.932046 -25.280055 -25.524185 0.000000 0.000000 0.000000 0.000000 0.000000 0.000000 -4.448806 4.734670 1.829521 8.812873 23.255308 -0.166178 -96.128931 30.330321 -29.326872 0.000000 0.000000 0.000000 0.000000 0.000000 0.000000 
-0.179845 72.468971 2.828196 -1.322844 -0.512550 -2.340301 3.948163 0.318826 6.437258 -0.597430 0.118221 -1.824998 0.923629 6.077014 11.709686 0.000000 0.000000 0.000000 -1.185162 -0.509812 5.980341 0.938419 -0.133063 -1.067650 0.212503 -5.505519 14.792075 0.000000 0.000000 0.000000 4.161561 -0.000915 -0.427982 -0.351615 0.632590 -20.275901 -1.803712 3.519179 25.264287 1.869850 -0.678312 -7.893561 0.000000 0.000000 0.000000 3.621699 -5.218382 1.927442 -7.487610 -30.487573 -0.298307 96.529252 -26.112717 -26.651265 0.000000 0.000000 0.000000 0.000000 0.000000 0.000000 -5.037440 4.481402 1.783005 8.969302 25.485015 -0.085438 -96.436738 29.203544 -28.274668 0.000000 0.000000 0.000000 0.000000 0.000000 0.000000 
-0.177905 72.559456 2.810319 -0.969896 -1.712086 -2.442805 3.789897 0.381157 7.318506 -1.325980 0.221796 -3.406668 1.517197 7.386354 12.989471 0.000000 0.000000 0.000000 -1.746933 -0.433294 5.582603 0.298363 -0.060462 -0.778112 0.642927 -4.606013 14.422107 0.000000 0.000000 0.000000 3.364276 -0.057705 0.431913 0.323578 0.448568 -20.393185 -0.994018 5.373238 25.902136 2.890702 -1.291436 -8.684482 0.000000 0.000000 0.000000 4.208163 -4.896479 1.858596 -9.540786 -30.182890 0.043156 97.406357 -24.715383 -25.570982 0.000000 0.000000 0.000000 0.000000 0.000000 0.000000 -3.735722 3.212425 1.329373 10.623485 24.499379 0.111680 -103.809079 28.395922 -31.042689 0.000000 0.000000 0.000000 0.000000 0.000000 0.000000 
-0.175871 72.733261 2.807425 -1.181586 -2.497954 -2.575525 3.993789 0.377808 7.533317 -1.217336 0.223159 -3.837395 0.940714 6.700761 13.834454 0.000000 0.000000 0.000000 -1.999154 -0.474240 6.296499 0.850327 -0.141104 -1.583996 0.820881 -4.514537 15.121793 0.000000 0.000000 0.000000 3.903487 -0.084007 0.697102 -0.032628 0.562430 -21.024474 -1.034336 5.759928 26.423140 2.797472 -1.132529 -9.583346 0.000000 0.000000 0.000000 4.604569 -4.417354 1.737181 -10.217556 -29.255673 0.116652 98.051400 -25.526481 -26.717824 0.000000 0.000000 0.000000 0.000000 0.000000 0.000000 -4.191795 2.918376 1.269184 11.005560 25.117305 0.192452 -103.138132 26.914625 -28.937827 0.000000 0.000000 0.000000 0.000000 0.000000 0.000000 
-0.176351 72.713821 2.775347 -1.048132 -2.311550 -2.671352 4.201123 0.332531 7.002848 -1.589045 0.239825 -3.259808 0.386021 5.712153 13.435390 0.000000 0.000000 0.000000 -2.072520 -0.433934 5.876829 0.640127 -0.097182 -0.860361 0.746812 -4.322528 14.143134 0.000000 0.000000 0.000000 3.842319 -0.097259 0.887122 -0.166483 0.596405 -20.929036 -1.295227 6.052778 26.170180 3.197956 -1.526217 -8.442926 0.000000 0.000000 0.000000 4.605628 -4.873261 1.871324 -11.128511 -28.693427 0.232764 97.907293 -25.249744 -26.358058 0.000000 0.000000 0.000000 0.000000 0.000000 0.000000 -3.590550 2.361727 1.059311 11.333357 24.835587 0.224788 -104.420824 27.426684 -30.195333 0.000000 0.000000 0.000000 0.000000 0.000000 0.000000 
-0.174856 72.767075 2.745920 -0.893464 -2.637623 -3.158206 3.779638 0.383704 7.348655 -1.335270 0.215010 -3.068409 0.317663 5.628810 13.521223 0.000000 0.000000 0.000000 -2.178685 -0.462331 6.323673 0.620168 -0.087548 -0.635727 0.835052 -4.228939 14.344966 0.000000 0.000000 0.000000 4.120086 -0.117580 1.094063 -0.900847 0.786100 -20.349483 -1.388969 6.295460 26.316442 3.720374 -1.947386 -7.889184 0.000000 0.000000 0.000000 4.507098 -5.128190 1.941735 -11.784983 -28.693641 0.334294 97.750859 -26.649785 -27.776271 0.000000 0.000000 0.000000 0.000000 0.000000 0.000000 -3.500850 2.134222 0.983064 11.781963 25.357502 0.315427 -103.491804 26.716501 -28.876274 0.000000 0.000000 0.000000 0.000000 0.000000 0.000000 
-0.174203 72.724205 2.713105 -0.915603 -2.565895 -3.394408 3.901803 0.380371 7.453063 -1.593193 0.231131 -2.808009 0.417917 5.749211 13.388772 0.000000 0.000000 0.000000 -2.031340 -0.461004 6.167020 0.553879 -0.064785 -0.172264 0.860720 -4.067124 14.009188 0.000000 0.000000 0.000000 4.222484 -0.138273 1.337001 -1.042289 0.820869 -20.059775 -1.427433 6.284109 26.021773 4.045518 -2.199011 -7.661898 0.000000 0.000000 0.000000 4.428840 -5.662155 2.096278 -12.558561 -28.224782 0.422827 97.666070 -27.337191 -28.465933 0.000000 0.000000 0.000000 0.000000 0.000000 0.000000 -3.482382 2.650989 1.140682 11.622920 25.141115 0.281120 -102.171454 27.087403 -28.668158 0.000000 0.000000 0.000000 0.000000 0.000000 0.000000 
-0.169850 72.715118 2.681432 -0.969688 -2.694956 -3.773189 4.170134 0.371547 7.669290 -1.713249 0.233575 -2.398572 0.605225 5.989228 13.188126 0.000000 0.000000 0.000000 -2.255751 -0.467747 6.466105 0.851764 -0.086412 0.124445 0.667269 -4.545928 14.374930 0.000000 0.000000 0.000000 4.182315 -0.154303 1.554605 -0.897304 0.778184 -19.926287 -1.419035 6.121766 26.281492 3.756723 -2.059759 -7.168028 0.000000 0.000000 0.000000 3.876258 -5.641564 2.066864 -12.739317 -28.483529 0.467634 97.220624 -28.085990 -29.042626 0.000000 0.000000 0.000000 0.000000 0.000000 0.000000 -3.905099 3.028802 1.284101 11.483130 25.940237 0.302467 -100.537821 27.005514 -27.791800 0.000000 0.000000 0.000000 0.000000 0.000000 0.000000 
-0.164950 72.699867 2.660634 -1.040501 -2.818754 -3.753880 4.210628 0.355972 7.443590 -1.829453 0.233480 -1.819488 0.693669 5.937268 12.517748 0.000000 0.000000 0.000000 -2.141692 -0.475194 6.445385 0.984990 -0.092609 0.385554 0.544332 -4.540820 13.680819 0.000000 0.000000 0.000000 4.252442 -0.149062 1.467739 -0.783140 0.744786 -19.848156 -1.547307 6.198994 26.371427 3.998776 -2.316226 -6.466725 0.000000 0.000000 0.000000 3.540567 -5.888144 2.127892 -12.342948 -28.590994 0.414010 96.794492 -28.107889 -28.858955 0.000000 0.000000 0.000000 0.000000 0.000000 0.000000 -3.510012 3.153591 1.297182 10.395394 26.485901 0.162578 -100.081202 27.290072 -27.899199 0.000000 0.000000 0.000000 0.000000 0.000000 0.000000 
-0.161692 72.675781 2.648644 -0.944257 -3.179480 -4.093524 3.909498 0.402834 7.854400 -1.960242 0.242522 -1.628492 0.819647 6.042950 12.178305 0.000000 0.000000 0.000000 -2.165526 -0.523812 7.064962 1.118798 -0.110846 0.265275 0.536632 -4.467046 13.418604 0.000000 0.000000 0.000000 4.365581 -0.161244 1.591864 -1.006112 0.804072 -19.624900 -1.563767 6.518745 26.403615 4.312478 -2.723044 -5.053523 0.000000 0.000000 0.000000 4.229423 -6.287657 2.274712 -12.225084 -28.460834 0.387651 95.591850 -28.645862 -28.835711 0.000000 0.000000 0.000000 0.000000 0.000000 0.000000 -4.133405 3.449981 1.425880 10.013154 27.104957 0.126965 -98.277769 27.185332 -26.945701 0.000000 0.000000 0.000000 0.000000 0.000000 0.000000 
-0.158103 72.664734 2.637483 -0.852200 -3.635970 -4.285172 3.747221 0.421106 7.941783 -2.066950 0.248472 -1.362266 0.965351 6.223566 11.981975 0.000000 0.000000 0.000000 -2.195374 -0.547402 7.386342 1.104757 -0.114886 0.079249 0.649971 -4.235455 13.359519 0.000000 0.000000 0.000000 4.466235 -0.177831 1.771683 -1.299125 0.888816 -19.760020 -1.444161 6.865410 26.532780 4.667078 -2.993274 -4.957227 0.000000 0.000000 0.000000 4.972950 -6.344746 2.318092 -12.324025 -28.666337 0.415943 94.952417 -28.809846 -28.695375 0.000000 0.000000 0.000000 0.000000 0.000000 0.000000 -4.686125 3.408335 1.446610 10.059282 27.725300 0.158203 -96.894857 27.707209 -26.883773 0.000000 0.000000 0.000000 0.000000 0.000000 0.000000 
-0.153888 72.611954 2.618402 -0.704708 -3.820872 -4.424977 3.484004 0.444267 7.968987 -2.207587 0.258491 -1.108134 1.234883 6.579848 11.685603 0.000000 0.000000 0.000000 -2.225772 -0.541568 7.347486 0.980531 -0.089572 0.467700 0.534351 -4.412920 13.245942 0.000000 0.000000 0.000000 4.387055 -0.177290 1.788590 -1.468841 0.936749 -19.765202 -1.482873 6.938237 26.634171 4.776413 -3.190241 -4.114604 0.000000 0.000000 0.000000 5.838656 -6.325701 2.343206 -12.121791 -29.059776 0.409253 93.990861 -29.046541 -28.474021 0.000000 0.000000 0.000000 0.000000 0.000000 0.000000 -5.559502 3.234384 1.448870 10.283643 28.716877 0.235950 -95.960076 27.453879 -26.193987 0.000000 0.000000 0.000000 0.000000 0.000000 0.000000 
-0.147067 72.591873 2.598559 -0.731823 -3.762213 -4.664690 3.361117 0.452845 7.945073 -2.057404 0.234447 -0.541934 1.404109 6.802338 11.488290 0.000000 0.000000 0.000000 -2.171031 -0.540229 7.272049 1.094956 -0.092990 0.774061 0.424574 -4.698328 13.486318 0.000000 0.000000 0.000000 4.380466 -0.179295 1.815931 -1.375806 0.911406 -19.840505 -1.525165 6.787319 26.731288 4.894885 -3.371214 -3.457870 0.000000 0.000000 0.000000 6.975791 -6.789884 2.510036 -11.329123 -29.935102 0.331874 91.618400 -28.176744 -26.521874 0.000000 0.000000 0.000000 0.000000 0.000000 0.000000 -6.787665 3.708578 1.655595 9.966701 29.097816 0.194641 -92.916332 26.610884 -24.026810 0.000000 0.000000 0.000000 0.000000 0.000000 0.000000 
-0.139330 72.559166 2.578687 -0.732277 -3.736250 -4.909460 3.390734 0.475305 8.345949 -2.164692 0.243314 -0.382975 1.721083 7.188464 10.988703 0.000000 0.000000 0.000000 -2.239492 -0.540468 7.348799 1.208974 -0.099197 1.003843 0.172811 -5.072919 13.198349 0.000000 0.000000 0.000000 4.278222 -0.196228 2.064006 -1.393135 0.919128 -20.082998 -1.549932 6.744674 26.703863 5.029549 -3.617557 -2.458461 0.000000 0.000000 0.000000 8.960972 -7.356076 2.715119 -9.644607 -30.936302 0.089864 88.138694 -26.137582 -23.141431 0.000000 0.000000 0.000000 0.000000 0.000000 0.000000 -8.484342 4.149901 1.866835 9.179353 29.699942 0.071602 -89.511114 24.965513 -21.100706 0.000000 0.000000 0.000000 0.000000 0.000000 0.000000 
-0.128976 72.574486 2.560615 -0.684937 -3.817522 -5.251369 3.123863 0.531266 8.861066 -1.862766 0.216742 -0.695503 1.975730 7.661021 11.189874 0.000000 0.000000 0.000000 -2.345261 -0.555680 7.655038 1.285193 -0.106397 1.058953 -0.038599 -5.522254 13.372648 0.000000 0.000000 0.000000 4.342150 -0.222485 2.376006 -1.411650 0.926096 -20.238955 -1.701260 6.926832 26.874981 5.260791 -3.909897 -1.686545 0.000000 0.000000 0.000000 10.528736 -7.914921 2.888932 -6.695731 -32.365699 -0.416038 85.017717 -23.223834 -19.410260 0.000000 0.000000 0.000000 0.000000 0.000000 0.000000 -9.561021 4.498694 2.010637 7.229675 30.902707 -0.275643 -85.562380 22.954062 -17.915879 0.000000 0.000000 0.000000 0.000000 0.000000 0.000000 
-0.117489 72.567734 2.549842 -0.650658 -3.765996 -5.447288 2.736233 0.570623 8.927780 -1.793636 0.205001 -0.445168 2.301632 8.112463 10.855066 0.000000 0.000000 0.000000 -2.209591 -0.586714 7.885547 1.340346 -0.109726 1.167971 -0.310483 -5.920181 13.024004 0.000000 0.000000 0.000000 4.228099 -0.235179 2.581809 -1.240625 0.880753 -20.401061 -1.884550 6.996272 26.817490 5.060346 -3.897590 -0.735338 0.000000 0.000000 0.000000 12.449868 -8.371682 3.028790 -3.476922 -33.770075 -1.060231 80.622497 -19.818002 -15.244577 0.000000 0.000000 0.000000 0.000000 0.000000 0.000000 -11.170406 4.982350 2.203326 4.754199 31.532434 -0.770967 -81.063477 20.899326 -14.861793 0.000000 0.000000 0.000000 0.000000 0.000000 0.000000 
